<mxfile host="app.diagrams.net" agent="Mozilla/5.0 (Windows NT 10.0; Win64; x64) AppleWebKit/537.36 (KHTML, like Gecko) Chrome/130.0.0.0 Safari/537.36 Edg/130.0.0.0" version="24.8.4">
  <diagram name="Page-1" id="e7e014a7-5840-1c2e-5031-d8a46d1fe8dd">
    <mxGraphModel dx="1810" dy="698" grid="1" gridSize="10" guides="1" tooltips="1" connect="1" arrows="1" fold="1" page="1" pageScale="1" pageWidth="1169" pageHeight="826" background="none" math="0" shadow="0">
      <root>
        <mxCell id="0" />
        <mxCell id="1" parent="0" />
        <mxCell id="2" value="Nhân viên" style="swimlane;whiteSpace=wrap" parent="1" vertex="1">
          <mxGeometry x="-80" y="128" width="840" height="1342" as="geometry" />
        </mxCell>
        <mxCell id="5" value="" style="ellipse;shape=startState;fillColor=#000000;strokeColor=#ff0000;" parent="2" vertex="1">
          <mxGeometry x="385" y="42" width="30" height="30" as="geometry" />
        </mxCell>
        <mxCell id="aESHtFPQA2CJhnFbg8cV-41" value="Đăng nhập" style="rounded=1;whiteSpace=wrap;html=1;" vertex="1" parent="2">
          <mxGeometry x="339.9972727272725" y="112" width="120" height="60" as="geometry" />
        </mxCell>
        <mxCell id="6" value="" style="edgeStyle=elbowEdgeStyle;elbow=horizontal;verticalAlign=bottom;endArrow=open;endSize=8;strokeColor=#FF0000;endFill=1;rounded=0;exitX=0.562;exitY=0.836;exitDx=0;exitDy=0;exitPerimeter=0;" parent="2" edge="1">
          <mxGeometry x="100" y="40" as="geometry">
            <mxPoint x="399.97" y="112" as="targetPoint" />
            <mxPoint x="399.8299999999999" y="67.07999999999998" as="sourcePoint" />
          </mxGeometry>
        </mxCell>
        <mxCell id="aESHtFPQA2CJhnFbg8cV-71" value="" style="edgeStyle=orthogonalEdgeStyle;rounded=0;orthogonalLoop=1;jettySize=auto;html=1;strokeColor=#FF0000;fillColor=#FF2605;" edge="1" parent="2" source="aESHtFPQA2CJhnFbg8cV-52" target="aESHtFPQA2CJhnFbg8cV-56">
          <mxGeometry relative="1" as="geometry" />
        </mxCell>
        <mxCell id="aESHtFPQA2CJhnFbg8cV-52" value="Lựa chọn chức năng" style="rounded=1;whiteSpace=wrap;html=1;" vertex="1" parent="2">
          <mxGeometry x="345" y="272" width="120" height="58" as="geometry" />
        </mxCell>
        <mxCell id="aESHtFPQA2CJhnFbg8cV-56" value="" style="whiteSpace=wrap;html=1;rounded=0;shadow=0;comic=0;labelBackgroundColor=none;strokeWidth=1;fillColor=#FF170F;fontFamily=Verdana;fontSize=12;align=center;rotation=0;strokeColor=#FF0800;" vertex="1" parent="2">
          <mxGeometry x="331.5" y="382" width="147" height="10" as="geometry" />
        </mxCell>
        <mxCell id="aESHtFPQA2CJhnFbg8cV-57" value="Thêm khách hàng" style="rounded=1;whiteSpace=wrap;html=1;" vertex="1" parent="2">
          <mxGeometry x="110" y="462" width="120" height="60" as="geometry" />
        </mxCell>
        <mxCell id="aESHtFPQA2CJhnFbg8cV-58" value="Sửa khách hàng" style="rounded=1;whiteSpace=wrap;html=1;" vertex="1" parent="2">
          <mxGeometry x="270" y="462" width="120" height="60" as="geometry" />
        </mxCell>
        <mxCell id="aESHtFPQA2CJhnFbg8cV-60" value="Xóa khách hàng" style="rounded=1;whiteSpace=wrap;html=1;" vertex="1" parent="2">
          <mxGeometry x="440" y="462" width="120" height="60" as="geometry" />
        </mxCell>
        <mxCell id="aESHtFPQA2CJhnFbg8cV-59" value="Tìm kiếm khách hàng" style="rounded=1;whiteSpace=wrap;html=1;" vertex="1" parent="2">
          <mxGeometry x="590" y="462" width="120" height="60" as="geometry" />
        </mxCell>
        <mxCell id="aESHtFPQA2CJhnFbg8cV-81" value="" style="edgeStyle=orthogonalEdgeStyle;rounded=0;orthogonalLoop=1;jettySize=auto;html=1;strokeColor=#FF0000;fillColor=#FF2605;" edge="1" parent="2" source="aESHtFPQA2CJhnFbg8cV-61" target="aESHtFPQA2CJhnFbg8cV-62">
          <mxGeometry relative="1" as="geometry" />
        </mxCell>
        <mxCell id="aESHtFPQA2CJhnFbg8cV-61" value="" style="whiteSpace=wrap;html=1;rounded=0;shadow=0;comic=0;labelBackgroundColor=none;strokeWidth=1;fillColor=#FF170F;fontFamily=Verdana;fontSize=12;align=center;rotation=0;strokeColor=#FF0800;" vertex="1" parent="2">
          <mxGeometry x="331.5" y="582" width="147" height="10" as="geometry" />
        </mxCell>
        <mxCell id="aESHtFPQA2CJhnFbg8cV-62" value="Nhập thông tin khách hàng" style="rounded=1;whiteSpace=wrap;html=1;" vertex="1" parent="2">
          <mxGeometry x="345" y="662" width="120" height="60" as="geometry" />
        </mxCell>
        <mxCell id="aESHtFPQA2CJhnFbg8cV-63" value="Lưu thông tin" style="rounded=1;whiteSpace=wrap;html=1;" vertex="1" parent="2">
          <mxGeometry x="345" y="772" width="120" height="60" as="geometry" />
        </mxCell>
        <mxCell id="aESHtFPQA2CJhnFbg8cV-87" value="" style="edgeStyle=orthogonalEdgeStyle;rounded=0;orthogonalLoop=1;jettySize=auto;html=1;strokeColor=#FF0000;fillColor=#FF0000;" edge="1" parent="2" source="aESHtFPQA2CJhnFbg8cV-64" target="aESHtFPQA2CJhnFbg8cV-68">
          <mxGeometry relative="1" as="geometry" />
        </mxCell>
        <mxCell id="aESHtFPQA2CJhnFbg8cV-64" value="Chấp nhận" style="rounded=1;whiteSpace=wrap;html=1;" vertex="1" parent="2">
          <mxGeometry x="345" y="1062" width="120" height="60" as="geometry" />
        </mxCell>
        <mxCell id="aESHtFPQA2CJhnFbg8cV-88" value="" style="edgeStyle=orthogonalEdgeStyle;rounded=0;orthogonalLoop=1;jettySize=auto;html=1;strokeColor=#FF0000;fillColor=#FF0000;" edge="1" parent="2" source="aESHtFPQA2CJhnFbg8cV-68" target="aESHtFPQA2CJhnFbg8cV-69">
          <mxGeometry relative="1" as="geometry" />
        </mxCell>
        <mxCell id="aESHtFPQA2CJhnFbg8cV-68" value="" style="rhombus;whiteSpace=wrap;html=1;" vertex="1" parent="2">
          <mxGeometry x="375" y="1182" width="60" height="28" as="geometry" />
        </mxCell>
        <mxCell id="aESHtFPQA2CJhnFbg8cV-69" value="" style="ellipse;html=1;shape=endState;fillColor=#000000;strokeColor=#ff0000;" vertex="1" parent="2">
          <mxGeometry x="390" y="1272" width="30" height="30" as="geometry" />
        </mxCell>
        <mxCell id="aESHtFPQA2CJhnFbg8cV-73" value="" style="endArrow=classic;html=1;rounded=0;exitX=0.5;exitY=1;exitDx=0;exitDy=0;entryX=0.5;entryY=0;entryDx=0;entryDy=0;fillColor=#FF0505;strokeColor=#FF3F05;" edge="1" parent="2" source="aESHtFPQA2CJhnFbg8cV-56" target="aESHtFPQA2CJhnFbg8cV-57">
          <mxGeometry width="50" height="50" relative="1" as="geometry">
            <mxPoint x="405" y="398" as="sourcePoint" />
            <mxPoint x="160" y="462" as="targetPoint" />
          </mxGeometry>
        </mxCell>
        <mxCell id="aESHtFPQA2CJhnFbg8cV-74" value="" style="endArrow=classic;html=1;rounded=0;exitX=0.5;exitY=1;exitDx=0;exitDy=0;entryX=0.5;entryY=0;entryDx=0;entryDy=0;fillColor=#FF0505;strokeColor=#FF3F05;" edge="1" parent="2" source="aESHtFPQA2CJhnFbg8cV-56" target="aESHtFPQA2CJhnFbg8cV-58">
          <mxGeometry width="50" height="50" relative="1" as="geometry">
            <mxPoint x="470" y="372" as="sourcePoint" />
            <mxPoint x="225" y="436" as="targetPoint" />
          </mxGeometry>
        </mxCell>
        <mxCell id="aESHtFPQA2CJhnFbg8cV-76" value="" style="endArrow=classic;html=1;rounded=0;exitX=0.5;exitY=1;exitDx=0;exitDy=0;entryX=0.5;entryY=0;entryDx=0;entryDy=0;fillColor=#FF0505;strokeColor=#FF3F05;" edge="1" parent="2" source="aESHtFPQA2CJhnFbg8cV-56" target="aESHtFPQA2CJhnFbg8cV-59">
          <mxGeometry width="50" height="50" relative="1" as="geometry">
            <mxPoint x="490" y="392" as="sourcePoint" />
            <mxPoint x="245" y="456" as="targetPoint" />
          </mxGeometry>
        </mxCell>
        <mxCell id="aESHtFPQA2CJhnFbg8cV-77" value="" style="endArrow=classic;html=1;rounded=0;exitX=0.5;exitY=1;exitDx=0;exitDy=0;entryX=0.5;entryY=0;entryDx=0;entryDy=0;fillColor=#FF0505;strokeColor=#FF3F05;" edge="1" parent="2" source="aESHtFPQA2CJhnFbg8cV-57" target="aESHtFPQA2CJhnFbg8cV-61">
          <mxGeometry width="50" height="50" relative="1" as="geometry">
            <mxPoint x="395" y="582" as="sourcePoint" />
            <mxPoint x="150" y="646" as="targetPoint" />
          </mxGeometry>
        </mxCell>
        <mxCell id="aESHtFPQA2CJhnFbg8cV-79" value="" style="endArrow=classic;html=1;rounded=0;exitX=0.5;exitY=1;exitDx=0;exitDy=0;entryX=0.5;entryY=0;entryDx=0;entryDy=0;fillColor=#FF0505;strokeColor=#FF3F05;" edge="1" parent="2" source="aESHtFPQA2CJhnFbg8cV-60" target="aESHtFPQA2CJhnFbg8cV-61">
          <mxGeometry width="50" height="50" relative="1" as="geometry">
            <mxPoint x="190" y="542" as="sourcePoint" />
            <mxPoint x="425" y="602" as="targetPoint" />
          </mxGeometry>
        </mxCell>
        <mxCell id="aESHtFPQA2CJhnFbg8cV-80" value="" style="endArrow=classic;html=1;rounded=0;exitX=0.5;exitY=1;exitDx=0;exitDy=0;fillColor=#FF0505;strokeColor=#FF3F05;entryX=0.5;entryY=0;entryDx=0;entryDy=0;" edge="1" parent="2" source="aESHtFPQA2CJhnFbg8cV-59" target="aESHtFPQA2CJhnFbg8cV-61">
          <mxGeometry width="50" height="50" relative="1" as="geometry">
            <mxPoint x="200" y="552" as="sourcePoint" />
            <mxPoint x="405" y="585" as="targetPoint" />
          </mxGeometry>
        </mxCell>
        <mxCell id="aESHtFPQA2CJhnFbg8cV-75" value="" style="endArrow=classic;html=1;rounded=0;fillColor=#FF0505;strokeColor=#FF3F05;exitX=0.5;exitY=1;exitDx=0;exitDy=0;entryX=0.5;entryY=0;entryDx=0;entryDy=0;" edge="1" parent="2" source="aESHtFPQA2CJhnFbg8cV-56" target="aESHtFPQA2CJhnFbg8cV-60">
          <mxGeometry width="50" height="50" relative="1" as="geometry">
            <mxPoint x="540" y="392" as="sourcePoint" />
            <mxPoint x="375" y="446" as="targetPoint" />
          </mxGeometry>
        </mxCell>
        <mxCell id="aESHtFPQA2CJhnFbg8cV-78" value="" style="endArrow=classic;html=1;rounded=0;exitX=0.5;exitY=1;exitDx=0;exitDy=0;fillColor=#FF0505;strokeColor=#FF3F05;entryX=0.5;entryY=1;entryDx=0;entryDy=0;" edge="1" parent="2" source="aESHtFPQA2CJhnFbg8cV-58" target="aESHtFPQA2CJhnFbg8cV-61">
          <mxGeometry width="50" height="50" relative="1" as="geometry">
            <mxPoint x="320" y="532" as="sourcePoint" />
            <mxPoint x="540" y="582" as="targetPoint" />
          </mxGeometry>
        </mxCell>
        <mxCell id="aESHtFPQA2CJhnFbg8cV-93" value="Đồng ý" style="text;html=1;align=center;verticalAlign=middle;whiteSpace=wrap;rounded=0;" vertex="1" parent="2">
          <mxGeometry x="450" y="1152" width="60" height="30" as="geometry" />
        </mxCell>
        <mxCell id="aESHtFPQA2CJhnFbg8cV-98" value="Hủy bỏ" style="text;html=1;align=center;verticalAlign=middle;whiteSpace=wrap;rounded=0;" vertex="1" parent="2">
          <mxGeometry x="375" y="1222" width="60" height="30" as="geometry" />
        </mxCell>
        <mxCell id="aESHtFPQA2CJhnFbg8cV-103" value="Không hoàn tất" style="text;html=1;align=center;verticalAlign=middle;whiteSpace=wrap;rounded=0;" vertex="1" parent="2">
          <mxGeometry x="460" y="1272" width="100" height="30" as="geometry" />
        </mxCell>
        <mxCell id="3" value="Hệ thống" style="swimlane;whiteSpace=wrap" parent="1" vertex="1">
          <mxGeometry x="760" y="128" width="490" height="1342" as="geometry" />
        </mxCell>
        <mxCell id="aESHtFPQA2CJhnFbg8cV-42" value="Kiểm tra mật khẩu" style="rounded=1;whiteSpace=wrap;html=1;" vertex="1" parent="3">
          <mxGeometry x="215" y="112" width="120" height="60" as="geometry" />
        </mxCell>
        <mxCell id="aESHtFPQA2CJhnFbg8cV-45" value="" style="rhombus;whiteSpace=wrap;html=1;" vertex="1" parent="3">
          <mxGeometry x="245" y="212" width="60" height="28" as="geometry" />
        </mxCell>
        <mxCell id="aESHtFPQA2CJhnFbg8cV-46" style="edgeStyle=orthogonalEdgeStyle;rounded=0;orthogonalLoop=1;jettySize=auto;html=1;exitX=0.5;exitY=1;exitDx=0;exitDy=0;entryX=0.5;entryY=0;entryDx=0;entryDy=0;fillColor=#FF1C03;strokeColor=#FF3300;" edge="1" parent="3" source="aESHtFPQA2CJhnFbg8cV-42" target="aESHtFPQA2CJhnFbg8cV-45">
          <mxGeometry relative="1" as="geometry">
            <mxPoint x="-270" y="232" as="sourcePoint" />
            <mxPoint x="290" y="232" as="targetPoint" />
          </mxGeometry>
        </mxCell>
        <mxCell id="aESHtFPQA2CJhnFbg8cV-49" value="Hiển thị danh sách khách hàng" style="rounded=1;whiteSpace=wrap;html=1;" vertex="1" parent="3">
          <mxGeometry x="220" y="272" width="120" height="60" as="geometry" />
        </mxCell>
        <mxCell id="aESHtFPQA2CJhnFbg8cV-50" style="edgeStyle=orthogonalEdgeStyle;rounded=0;orthogonalLoop=1;jettySize=auto;html=1;entryX=0.458;entryY=0;entryDx=0;entryDy=0;fillColor=#FF1C03;strokeColor=#FF3300;exitX=0.5;exitY=1;exitDx=0;exitDy=0;entryPerimeter=0;" edge="1" parent="3" source="aESHtFPQA2CJhnFbg8cV-45" target="aESHtFPQA2CJhnFbg8cV-49">
          <mxGeometry relative="1" as="geometry">
            <mxPoint x="310" y="192" as="sourcePoint" />
            <mxPoint x="285" y="222" as="targetPoint" />
          </mxGeometry>
        </mxCell>
        <mxCell id="aESHtFPQA2CJhnFbg8cV-65" value="Cung cấp thông tin phản hồi" style="rounded=1;whiteSpace=wrap;html=1;" vertex="1" parent="3">
          <mxGeometry x="220" y="662" width="120" height="60" as="geometry" />
        </mxCell>
        <mxCell id="aESHtFPQA2CJhnFbg8cV-85" value="" style="edgeStyle=orthogonalEdgeStyle;rounded=0;orthogonalLoop=1;jettySize=auto;html=1;strokeColor=#FF0000;fillColor=#FF0000;" edge="1" parent="3" source="aESHtFPQA2CJhnFbg8cV-66" target="aESHtFPQA2CJhnFbg8cV-67">
          <mxGeometry relative="1" as="geometry" />
        </mxCell>
        <mxCell id="aESHtFPQA2CJhnFbg8cV-66" value="Hiển thị danh sách khách hàng vùa cập nhật" style="rounded=1;whiteSpace=wrap;html=1;" vertex="1" parent="3">
          <mxGeometry x="220" y="912" width="120" height="60" as="geometry" />
        </mxCell>
        <mxCell id="aESHtFPQA2CJhnFbg8cV-67" value="" style="rhombus;whiteSpace=wrap;html=1;" vertex="1" parent="3">
          <mxGeometry x="250" y="1012" width="60" height="28" as="geometry" />
        </mxCell>
        <mxCell id="aESHtFPQA2CJhnFbg8cV-70" value="" style="ellipse;html=1;shape=endState;fillColor=#000000;strokeColor=#ff0000;" vertex="1" parent="3">
          <mxGeometry x="265" y="1272" width="30" height="30" as="geometry" />
        </mxCell>
        <mxCell id="aESHtFPQA2CJhnFbg8cV-95" value="" style="edgeStyle=orthogonalEdgeStyle;rounded=0;orthogonalLoop=1;jettySize=auto;html=1;strokeColor=#FF1303;fillColor=#FF2008;" edge="1" parent="3" source="aESHtFPQA2CJhnFbg8cV-94" target="aESHtFPQA2CJhnFbg8cV-70">
          <mxGeometry relative="1" as="geometry" />
        </mxCell>
        <mxCell id="aESHtFPQA2CJhnFbg8cV-94" value="Thông báo thành công" style="rounded=1;whiteSpace=wrap;html=1;" vertex="1" parent="3">
          <mxGeometry x="220" y="1166" width="120" height="60" as="geometry" />
        </mxCell>
        <mxCell id="aESHtFPQA2CJhnFbg8cV-101" value="Còn" style="text;html=1;align=center;verticalAlign=middle;whiteSpace=wrap;rounded=0;" vertex="1" parent="3">
          <mxGeometry x="200" y="982" width="60" height="30" as="geometry" />
        </mxCell>
        <mxCell id="aESHtFPQA2CJhnFbg8cV-102" value="Hết" style="text;html=1;align=center;verticalAlign=middle;whiteSpace=wrap;rounded=0;" vertex="1" parent="3">
          <mxGeometry x="295" y="1052" width="60" height="30" as="geometry" />
        </mxCell>
        <mxCell id="aESHtFPQA2CJhnFbg8cV-104" value="Hoàn tất" style="text;html=1;align=center;verticalAlign=middle;whiteSpace=wrap;rounded=0;" vertex="1" parent="3">
          <mxGeometry x="320" y="1272" width="60" height="30" as="geometry" />
        </mxCell>
        <mxCell id="aESHtFPQA2CJhnFbg8cV-105" value="Thất bại" style="text;html=1;align=center;verticalAlign=middle;whiteSpace=wrap;rounded=0;" vertex="1" parent="3">
          <mxGeometry x="100" y="192" width="60" height="30" as="geometry" />
        </mxCell>
        <mxCell id="aESHtFPQA2CJhnFbg8cV-106" value="Thành công" style="text;html=1;align=center;verticalAlign=middle;whiteSpace=wrap;rounded=0;" vertex="1" parent="3">
          <mxGeometry x="232.5" y="240" width="85" height="30" as="geometry" />
        </mxCell>
        <mxCell id="aESHtFPQA2CJhnFbg8cV-44" style="edgeStyle=orthogonalEdgeStyle;rounded=0;orthogonalLoop=1;jettySize=auto;html=1;exitX=1;exitY=0.5;exitDx=0;exitDy=0;entryX=0;entryY=0.5;entryDx=0;entryDy=0;fillColor=#FF1C03;strokeColor=#FF3300;" edge="1" parent="1" source="aESHtFPQA2CJhnFbg8cV-41" target="aESHtFPQA2CJhnFbg8cV-42">
          <mxGeometry relative="1" as="geometry" />
        </mxCell>
        <mxCell id="aESHtFPQA2CJhnFbg8cV-48" style="edgeStyle=orthogonalEdgeStyle;rounded=0;orthogonalLoop=1;jettySize=auto;html=1;exitX=0;exitY=0.5;exitDx=0;exitDy=0;fillColor=#FF1C03;strokeColor=#FF3300;" edge="1" parent="1" source="aESHtFPQA2CJhnFbg8cV-45" target="aESHtFPQA2CJhnFbg8cV-41">
          <mxGeometry relative="1" as="geometry">
            <mxPoint x="245" y="280" as="sourcePoint" />
            <mxPoint x="170" y="310" as="targetPoint" />
          </mxGeometry>
        </mxCell>
        <mxCell id="aESHtFPQA2CJhnFbg8cV-53" style="edgeStyle=orthogonalEdgeStyle;rounded=0;orthogonalLoop=1;jettySize=auto;html=1;strokeColor=#FF0022;fillColor=#FF2200;" edge="1" parent="1" source="aESHtFPQA2CJhnFbg8cV-49" target="aESHtFPQA2CJhnFbg8cV-52">
          <mxGeometry relative="1" as="geometry" />
        </mxCell>
        <mxCell id="aESHtFPQA2CJhnFbg8cV-82" style="edgeStyle=orthogonalEdgeStyle;rounded=0;orthogonalLoop=1;jettySize=auto;html=1;entryX=0;entryY=0.5;entryDx=0;entryDy=0;strokeColor=#FF0000;fillColor=#FF0000;" edge="1" parent="1" source="aESHtFPQA2CJhnFbg8cV-62" target="aESHtFPQA2CJhnFbg8cV-65">
          <mxGeometry relative="1" as="geometry" />
        </mxCell>
        <mxCell id="aESHtFPQA2CJhnFbg8cV-83" style="edgeStyle=orthogonalEdgeStyle;rounded=0;orthogonalLoop=1;jettySize=auto;html=1;entryX=1;entryY=0.5;entryDx=0;entryDy=0;strokeColor=#FF0000;fillColor=#FF0000;" edge="1" parent="1" source="aESHtFPQA2CJhnFbg8cV-65" target="aESHtFPQA2CJhnFbg8cV-63">
          <mxGeometry relative="1" as="geometry">
            <Array as="points">
              <mxPoint x="1040" y="930" />
            </Array>
          </mxGeometry>
        </mxCell>
        <mxCell id="aESHtFPQA2CJhnFbg8cV-84" style="edgeStyle=orthogonalEdgeStyle;rounded=0;orthogonalLoop=1;jettySize=auto;html=1;entryX=0;entryY=0.5;entryDx=0;entryDy=0;strokeColor=#FF0000;fillColor=#FF0000;exitX=0.5;exitY=1;exitDx=0;exitDy=0;" edge="1" parent="1" source="aESHtFPQA2CJhnFbg8cV-63" target="aESHtFPQA2CJhnFbg8cV-66">
          <mxGeometry relative="1" as="geometry">
            <Array as="points">
              <mxPoint x="325" y="1070" />
            </Array>
          </mxGeometry>
        </mxCell>
        <mxCell id="aESHtFPQA2CJhnFbg8cV-86" style="edgeStyle=orthogonalEdgeStyle;rounded=0;orthogonalLoop=1;jettySize=auto;html=1;entryX=1;entryY=0.5;entryDx=0;entryDy=0;strokeColor=#FF0000;fillColor=#FF0000;" edge="1" parent="1" source="aESHtFPQA2CJhnFbg8cV-67" target="aESHtFPQA2CJhnFbg8cV-64">
          <mxGeometry relative="1" as="geometry">
            <Array as="points">
              <mxPoint x="1040" y="1220" />
            </Array>
          </mxGeometry>
        </mxCell>
        <mxCell id="aESHtFPQA2CJhnFbg8cV-91" style="edgeStyle=orthogonalEdgeStyle;rounded=0;orthogonalLoop=1;jettySize=auto;html=1;entryX=0;entryY=0.5;entryDx=0;entryDy=0;strokeColor=#FF0000;fillColor=#FF0000;" edge="1" parent="1" source="aESHtFPQA2CJhnFbg8cV-67" target="aESHtFPQA2CJhnFbg8cV-52">
          <mxGeometry relative="1" as="geometry">
            <Array as="points">
              <mxPoint x="-30" y="1154" />
              <mxPoint x="-30" y="429" />
            </Array>
          </mxGeometry>
        </mxCell>
        <mxCell id="aESHtFPQA2CJhnFbg8cV-97" style="edgeStyle=orthogonalEdgeStyle;rounded=0;orthogonalLoop=1;jettySize=auto;html=1;entryX=0;entryY=0.5;entryDx=0;entryDy=0;strokeColor=#FF1303;fillColor=#FF2008;" edge="1" parent="1" source="aESHtFPQA2CJhnFbg8cV-68" target="aESHtFPQA2CJhnFbg8cV-94">
          <mxGeometry relative="1" as="geometry" />
        </mxCell>
      </root>
    </mxGraphModel>
  </diagram>
</mxfile>
